<svg width="32" height="32" viewBox="0 0 32 32" fill="none" xmlns="http://www.w3.org/2000/svg">
<g clip-path="url(#clip0_416_710)">
<path d="M12.2261 15.1966H3.1463C1.50842 15.1966 0.175781 13.864 0.175781 12.2261V3.1463C0.175781 1.50842 1.50842 0.175781 3.1463 0.175781H12.2261C13.864 0.175781 15.1966 1.50842 15.1966 3.1463V12.2261C15.1966 13.864 13.864 15.1966 12.2261 15.1966ZM3.1463 2.28328C2.67036 2.28328 2.28328 2.67036 2.28328 3.1463V12.2261C2.28328 12.7021 2.67036 13.0891 3.1463 13.0891H12.2261C12.7021 13.0891 13.0891 12.7021 13.0891 12.2261V3.1463C13.0891 2.67036 12.7021 2.28328 12.2261 2.28328H3.1463Z" fill="#E0E0E0"/>
<path d="M28.8177 15.1966H19.7379C18.1 15.1966 16.7673 13.864 16.7673 12.2261V3.1463C16.7673 1.50842 18.1 0.175781 19.7379 0.175781H28.8177C30.4555 0.175781 31.7882 1.50842 31.7882 3.1463V12.2261C31.7882 13.864 30.4555 15.1966 28.8177 15.1966ZM19.7379 2.28328C19.2623 2.28328 18.8748 2.67036 18.8748 3.1463V12.2261C18.8748 12.7021 19.2623 13.0891 19.7379 13.0891H28.8177C29.2933 13.0891 29.6807 12.7021 29.6807 12.2261V3.1463C29.6807 2.67036 29.2933 2.28328 28.8177 2.28328H19.7379Z" fill="#E0E0E0"/>
<path d="M12.2261 31.7882H3.1463C1.50842 31.7882 0.175781 30.4555 0.175781 28.8177V19.7379C0.175781 18.1 1.50842 16.7673 3.1463 16.7673H12.2261C13.864 16.7673 15.1966 18.1 15.1966 19.7379V28.8177C15.1966 30.4555 13.864 31.7882 12.2261 31.7882ZM3.1463 18.8748C2.67036 18.8748 2.28328 19.2623 2.28328 19.7379V28.8177C2.28328 29.2933 2.67036 29.6807 3.1463 29.6807H12.2261C12.7021 29.6807 13.0891 29.2933 13.0891 28.8177V19.7379C13.0891 19.2623 12.7021 18.8748 12.2261 18.8748H3.1463Z" fill="#E0E0E0"/>
<path d="M28.8177 31.7882H19.7379C18.1 31.7882 16.7673 30.4555 16.7673 28.8177V19.7379C16.7673 18.1 18.1 16.7673 19.7379 16.7673H28.8177C30.4555 16.7673 31.7882 18.1 31.7882 19.7379V28.8177C31.7882 30.4555 30.4555 31.7882 28.8177 31.7882ZM19.7379 18.8748C19.2623 18.8748 18.8748 19.2623 18.8748 19.7379V28.8177C18.8748 29.2933 19.2623 29.6807 19.7379 29.6807H28.8177C29.2933 29.6807 29.6807 29.2933 29.6807 28.8177V19.7379C29.6807 19.2623 29.2933 18.8748 28.8177 18.8748H19.7379Z" fill="#E0E0E0"/>
</g>
<defs>
<clipPath id="clip0_416_710">
<rect width="32" height="32" fill="white"/>
</clipPath>
</defs>
</svg>
