<svg width="30" height="30" viewBox="0 0 30 30" fill="none" xmlns="http://www.w3.org/2000/svg">
<path d="M13.3594 12.1758C13.3594 13.1016 12.6094 13.8633 11.6719 13.8633H2.85938C1.93359 13.8633 1.17188 13.1133 1.17188 12.1758V3.35156C1.17188 2.42578 1.92187 1.66406 2.85938 1.66406H11.6836C12.6094 1.66406 13.3711 2.41406 13.3711 3.35156V12.1758H13.3594Z" fill="#15D5FF"/>
<path d="M28.8281 12.1758C28.8281 13.1016 28.0781 13.8633 27.1406 13.8633H18.3164C17.3906 13.8633 16.6289 13.1133 16.6289 12.1758V3.35156C16.6289 2.42578 17.3789 1.66406 18.3164 1.66406H27.1406C28.0664 1.66406 28.8281 2.41406 28.8281 3.35156V12.1758Z" fill="#15D5FF"/>
<path d="M13.4648 26.6484C13.4648 27.5742 12.7148 28.3359 11.7773 28.3359H2.95313C2.02734 28.3359 1.26562 27.5859 1.26562 26.6484V17.8242C1.26562 16.8984 2.01563 16.1367 2.95313 16.1367H11.7773C12.7031 16.1367 13.4648 16.8867 13.4648 17.8242V26.6484Z" fill="#15D5FF"/>
<path d="M28.8281 26.6484C28.8281 27.5742 28.0781 28.3359 27.1406 28.3359H18.3164C17.3906 28.3359 16.6289 27.5859 16.6289 26.6484V17.8242C16.6289 16.8984 17.3789 16.1367 18.3164 16.1367H27.1406C28.0664 16.1367 28.8281 16.8867 28.8281 17.8242V26.6484Z" fill="#15D5FF"/>
</svg>
