<svg width="32" height="32" viewBox="0 0 32 32" fill="none" xmlns="http://www.w3.org/2000/svg">
<path d="M16 29.3333C8.63616 29.3333 2.66663 23.3637 2.66663 16C2.66663 8.63616 8.63616 2.66663 16 2.66663C23.3637 2.66663 29.3333 8.63616 29.3333 16C29.3333 23.3637 23.3637 29.3333 16 29.3333ZM16 26.6666C21.891 26.6666 26.6666 21.891 26.6666 16C26.6666 10.1089 21.891 5.33329 16 5.33329C10.1089 5.33329 5.33329 10.1089 5.33329 16C5.33329 21.891 10.1089 26.6666 16 26.6666ZM14.6666 20H17.3333V22.6666H14.6666V20ZM17.3333 17.8068V18.6666H14.6666V16.6666C14.6666 15.9302 15.2636 15.3333 16 15.3333C17.1045 15.3333 18 14.4378 18 13.3333C18 12.2287 17.1045 11.3333 16 11.3333C15.0297 11.3333 14.2208 12.0243 14.0384 12.941L11.423 12.4179C11.8485 10.2789 13.736 8.66663 16 8.66663C18.5773 8.66663 20.6666 10.756 20.6666 13.3333C20.6666 15.4473 19.2609 17.233 17.3333 17.8068Z" fill="#E0E0E0"/>
</svg>
