<svg width="198" height="41" viewBox="0 0 198 41" fill="none" xmlns="http://www.w3.org/2000/svg">
<g clip-path="url(#clip0_41_28)">
<path d="M9.89547 37.38C14.94 37.38 19.0294 33.1904 19.0294 28.0223C19.0294 22.8543 14.94 18.6647 9.89547 18.6647C4.85097 18.6647 0.761592 22.8543 0.761592 28.0223C0.761592 33.1904 4.85097 37.38 9.89547 37.38Z" fill="#98E9FB" fill-opacity="0.756863"/>
<path d="M42.4493 38.7798C50.1624 38.7798 56.4151 32.7515 56.4151 25.3153C56.4151 17.8791 50.1624 11.8508 42.4493 11.8508C34.7362 11.8508 28.4835 17.8791 28.4835 25.3153C28.4835 32.7515 34.7362 38.7798 42.4493 38.7798Z" fill="#FCBCEF" fill-opacity="0.666667"/>
<path d="M26.7894 38.1735C36.3101 38.1735 44.028 30.2665 44.028 20.5126C44.028 10.7587 36.3101 2.85167 26.7894 2.85167C17.2688 2.85167 9.55085 10.7587 9.55085 20.5126C9.55085 30.2665 17.2688 38.1735 26.7894 38.1735Z" fill="#9DE6FA" fill-opacity="0.6"/>
</g>
<path d="M82.5967 33.332C80.9808 33.332 79.4368 33.0166 77.9648 32.3857C76.5039 31.7549 75.2422 30.9137 74.1797 29.8623C73.1172 28.7998 72.2705 27.5326 71.6396 26.0605C71.0088 24.5885 70.6934 23.0501 70.6934 21.4453C70.6934 19.8405 71.0088 18.3021 71.6396 16.8301C72.2705 15.3581 73.1172 14.0908 74.1797 13.0283C75.2422 11.9658 76.5094 11.1191 77.9814 10.4883C79.4535 9.85742 80.9919 9.54199 82.5967 9.54199C84.2236 9.54199 85.7676 9.85189 87.2285 10.4717C88.6895 11.0915 89.9733 11.9714 91.0801 13.1113C91.4674 13.4987 91.6611 13.9801 91.6611 14.5557C91.6611 15.1201 91.4619 15.6016 91.0635 16C90.665 16.3874 90.1836 16.5811 89.6191 16.5811C89.0215 16.5811 88.529 16.3708 88.1416 15.9502C86.6032 14.3232 84.7549 13.5098 82.5967 13.5098C80.4606 13.5098 78.6344 14.2845 77.1182 15.834C75.6019 17.3835 74.8438 19.2539 74.8438 21.4453C74.8438 22.8841 75.1868 24.2122 75.873 25.4297C76.5703 26.6471 77.5111 27.61 78.6953 28.3184C79.8906 29.0156 81.1911 29.3643 82.5967 29.3643C84.766 29.3643 86.6143 28.5563 88.1416 26.9404C88.54 26.5088 89.0326 26.293 89.6191 26.293C90.1836 26.293 90.665 26.4922 91.0635 26.8906C91.4619 27.2891 91.6611 27.7705 91.6611 28.335C91.6611 28.8994 91.4674 29.3753 91.0801 29.7627C89.9733 30.9027 88.6895 31.7826 87.2285 32.4023C85.7676 33.0221 84.2236 33.332 82.5967 33.332ZM100.931 32.4023C100.533 32.8008 100.052 33 99.4871 33C98.9227 33 98.4412 32.8008 98.0428 32.4023C97.6443 32.0039 97.4451 31.5225 97.4451 30.958V11.2354C97.4451 10.6709 97.6443 10.1895 98.0428 9.79102C98.4412 9.39258 98.9227 9.19336 99.4871 9.19336C100.052 9.19336 100.533 9.39258 100.931 9.79102C101.33 10.1895 101.529 10.6709 101.529 11.2354V30.958C101.529 31.5225 101.33 32.0039 100.931 32.4023ZM116.477 33.332C114.872 33.332 113.389 32.9447 112.028 32.1699C110.678 31.3841 109.61 30.3161 108.824 28.9658C108.038 27.6156 107.645 26.1436 107.645 24.5498C107.645 22.9671 108.038 21.5062 108.824 20.167C109.61 18.8167 110.678 17.7542 112.028 16.9795C113.389 16.1937 114.872 15.8008 116.477 15.8008C117.684 15.8008 118.829 16.0332 119.914 16.498C121.009 16.9518 121.95 17.5716 122.736 18.3574C123.533 19.1432 124.164 20.0785 124.629 21.1631C125.093 22.2367 125.326 23.3656 125.326 24.5498C125.326 25.7451 125.093 26.8851 124.629 27.9697C124.164 29.0544 123.533 29.9896 122.736 30.7754C121.95 31.5501 121.009 32.1699 119.914 32.6348C118.829 33.0996 117.684 33.332 116.477 33.332ZM113.107 28.0693C114.037 29.0212 115.16 29.4971 116.477 29.4971C117.794 29.4971 118.918 29.0212 119.847 28.0693C120.777 27.1064 121.242 25.9388 121.242 24.5664C121.242 23.2051 120.777 22.043 119.847 21.0801C118.918 20.1172 117.794 19.6357 116.477 19.6357C115.16 19.6357 114.037 20.1172 113.107 21.0801C112.188 22.043 111.729 23.2051 111.729 24.5664C111.729 25.9388 112.188 27.1064 113.107 28.0693ZM144.607 16.7305C145.005 16.332 145.487 16.1328 146.051 16.1328C146.616 16.1328 147.097 16.332 147.496 16.7305C147.894 17.1289 148.093 17.6104 148.093 18.1748V30.958C148.093 31.5225 147.894 32.0039 147.496 32.4023C147.097 32.8008 146.616 33 146.051 33C145.509 33 145.044 32.8174 144.657 32.4521C144.269 32.0869 144.053 31.6442 144.009 31.124C142.57 32.596 140.816 33.332 138.746 33.332C136.721 33.332 134.995 32.6292 133.567 31.2236C132.139 29.818 131.425 28.1136 131.425 26.1104V18.1914C131.425 17.627 131.624 17.1455 132.023 16.7471C132.421 16.3486 132.903 16.1494 133.467 16.1494C134.032 16.1494 134.513 16.3486 134.912 16.7471C135.31 17.1455 135.509 17.627 135.509 18.1914V25.0811C135.509 26.2985 135.924 27.3389 136.754 28.2021C137.584 29.0654 138.586 29.4971 139.759 29.4971C140.932 29.4971 141.934 29.0654 142.764 28.2021C143.594 27.3389 144.009 26.2985 144.009 25.0811V18.1748C144.009 17.6104 144.208 17.1289 144.607 16.7305ZM168.304 9.79102C168.702 9.39258 169.184 9.19336 169.748 9.19336C170.313 9.19336 170.794 9.39258 171.193 9.79102C171.591 10.1895 171.79 10.6709 171.79 11.2354V30.958C171.79 31.5225 171.591 32.0039 171.193 32.4023C170.794 32.8008 170.313 33 169.748 33C169.184 33 168.702 32.8008 168.304 32.4023C167.905 32.0039 167.706 31.5225 167.706 30.958V30.9414C166.179 32.5352 164.342 33.332 162.195 33.332C160.745 33.332 159.405 32.9447 158.177 32.1699C156.948 31.3841 155.98 30.3216 155.272 28.9824C154.563 27.6322 154.209 26.1657 154.209 24.583C154.209 22.9893 154.563 21.5173 155.272 20.167C155.98 18.8167 156.948 17.7542 158.177 16.9795C159.405 16.1937 160.745 15.8008 162.195 15.8008C164.331 15.8008 166.168 16.6032 167.706 18.208V11.2354C167.706 10.6709 167.905 10.1895 168.304 9.79102ZM159.671 28.0693C160.601 29.0212 161.724 29.4971 163.041 29.4971C164.358 29.4971 165.482 29.0212 166.411 28.0693C167.341 27.1064 167.806 25.9443 167.806 24.583C167.806 23.2106 167.341 22.043 166.411 21.0801C165.482 20.1172 164.358 19.6357 163.041 19.6357C161.724 19.6357 160.601 20.1172 159.671 21.0801C158.752 22.043 158.293 23.2106 158.293 24.583C158.293 25.9443 158.752 27.1064 159.671 28.0693ZM185.908 40.6533C183.861 40.6755 181.73 40.2217 179.517 39.292C179.14 39.137 178.836 38.888 178.604 38.5449C178.371 38.2129 178.255 37.8366 178.255 37.416C178.255 36.6855 178.559 36.1156 179.168 35.7061C179.788 35.3076 180.43 35.2523 181.094 35.54C182.732 36.2373 184.337 36.5859 185.908 36.5859C187.502 36.5859 188.753 36.1598 189.66 35.3076C190.568 34.4665 191.021 33.1937 191.021 31.4893V31.124C189.583 32.596 187.828 33.332 185.759 33.332C183.733 33.332 182.007 32.6292 180.579 31.2236C179.151 29.818 178.438 28.1136 178.438 26.1104V18.1914C178.438 17.627 178.637 17.1455 179.035 16.7471C179.434 16.3486 179.915 16.1494 180.479 16.1494C181.044 16.1494 181.525 16.3486 181.924 16.7471C182.322 17.1455 182.521 17.627 182.521 18.1914V25.0811C182.521 26.2985 182.937 27.3389 183.767 28.2021C184.597 29.0654 185.598 29.4971 186.771 29.4971C187.934 29.4971 188.924 29.0765 189.743 28.2354C190.573 27.3942 190.999 26.376 191.021 25.1807V18.1748C191.021 17.6104 191.221 17.1289 191.619 16.7305C192.018 16.332 192.499 16.1328 193.063 16.1328C193.628 16.1328 194.109 16.332 194.508 16.7305C194.906 17.1289 195.105 17.6104 195.105 18.1748V31.4893C195.105 34.3005 194.27 36.5251 192.599 38.1631C190.938 39.8011 188.708 40.6312 185.908 40.6533Z" fill="black"/>
<defs>
<clipPath id="clip0_41_28">
<rect width="57" height="37" fill="white" transform="translate(0 2)"/>
</clipPath>
</defs>
</svg>
