<?xml version="1.0" ?><svg data-name="Layer 1" height="200" id="Layer_1" viewBox="0 0 200 200" width="200" xmlns="http://www.w3.org/2000/svg"><title/><path d="M145,80H70V60A20.06,20.06,0,0,1,90,40h22.5A17.72,17.72,0,0,1,130,57.5a10,10,0,0,0,20,0A37.77,37.77,0,0,0,112.5,20H90A40.12,40.12,0,0,0,50,60V80.5A30.08,30.08,0,0,0,25,110v40a30.09,30.09,0,0,0,30,30h90a30.09,30.09,0,0,0,30-30V110A30.09,30.09,0,0,0,145,80Zm10,70a10,10,0,0,1-10,10H55a10,10,0,0,1-10-10V110a10,10,0,0,1,10-10h90a10,10,0,0,1,10,10Z"/></svg>