<svg width="32" height="32" viewBox="0 0 32 32" fill="none" xmlns="http://www.w3.org/2000/svg">
<path d="M11.5831 5.3334L15.0587 1.85794C15.5793 1.33723 16.4235 1.33723 16.9443 1.85794L20.4197 5.3334H25.3348C26.0711 5.3334 26.6681 5.93036 26.6681 6.66674V11.5818L30.1436 15.0573C30.6643 15.578 30.6643 16.4222 30.1436 16.9429L26.6681 20.4184V25.3334C26.6681 26.0698 26.0711 26.6668 25.3348 26.6668H20.4197L16.9443 30.1422C16.4235 30.6629 15.5793 30.6629 15.0587 30.1422L11.5831 26.6668H6.66808C5.93169 26.6668 5.33475 26.0698 5.33475 25.3334V20.4184L1.85928 16.9429C1.33857 16.4222 1.33857 15.578 1.85928 15.0573L5.33475 11.5818V6.66674C5.33475 5.93036 5.93169 5.3334 6.66808 5.3334H11.5831ZM8.00141 8.00007V12.6864L4.68771 16.0001L8.00141 19.3138V24.0001H12.6877L16.0015 27.3138L19.3151 24.0001H24.0015V19.3138L27.3151 16.0001L24.0015 12.6864V8.00007H19.3151L16.0015 4.68636L12.6877 8.00007H8.00141ZM16.0015 21.3334C13.0559 21.3334 10.6681 18.9456 10.6681 16.0001C10.6681 13.0546 13.0559 10.6667 16.0015 10.6667C18.9469 10.6667 21.3348 13.0546 21.3348 16.0001C21.3348 18.9456 18.9469 21.3334 16.0015 21.3334ZM16.0015 18.6668C17.4741 18.6668 18.6681 17.4729 18.6681 16.0001C18.6681 14.5273 17.4741 13.3334 16.0015 13.3334C14.5287 13.3334 13.3348 14.5273 13.3348 16.0001C13.3348 17.4729 14.5287 18.6668 16.0015 18.6668Z" fill="#E0E0E0"/>
</svg>
