<svg width="32" height="32" viewBox="0 0 32 32" fill="none" xmlns="http://www.w3.org/2000/svg">
<path d="M11.5831 5.33328L15.0587 1.85782C15.5793 1.33711 16.4235 1.33711 16.9443 1.85782L20.4197 5.33328H25.3348C26.0711 5.33328 26.6681 5.93024 26.6681 6.66662V11.5817L30.1436 15.0572C30.6643 15.5778 30.6643 16.4221 30.1436 16.9428L26.6681 20.4182V25.3333C26.6681 26.0697 26.0711 26.6666 25.3348 26.6666H20.4197L16.9443 30.1421C16.4235 30.6628 15.5793 30.6628 15.0587 30.1421L11.5831 26.6666H6.66808C5.93169 26.6666 5.33475 26.0697 5.33475 25.3333V20.4182L1.85928 16.9428C1.33857 16.4221 1.33857 15.5778 1.85928 15.0572L5.33475 11.5817V6.66662C5.33475 5.93024 5.93169 5.33328 6.66808 5.33328H11.5831ZM16.0015 20C18.2105 20 20.0015 18.209 20.0015 16C20.0015 13.7908 18.2105 11.9999 16.0015 11.9999C13.7923 11.9999 12.0014 13.7908 12.0014 16C12.0014 18.209 13.7923 20 16.0015 20Z" fill="#15D5FF"/>
</svg>
