<svg width="32" height="32" viewBox="0 0 32 32" fill="none" xmlns="http://www.w3.org/2000/svg">
<path d="M4 8H6.66667H28" stroke="#E0E0E0" stroke-width="4" stroke-linecap="round" stroke-linejoin="round"/>
<path d="M25.3333 7.99996V26.6666C25.3333 27.3739 25.0523 28.0521 24.5522 28.5522C24.0521 29.0523 23.3739 29.3333 22.6666 29.3333H9.33329C8.62605 29.3333 7.94777 29.0523 7.44767 28.5522C6.94758 28.0521 6.66663 27.3739 6.66663 26.6666V7.99996M10.6666 7.99996V5.33329C10.6666 4.62605 10.9476 3.94777 11.4477 3.44767C11.9478 2.94758 12.626 2.66663 13.3333 2.66663H18.6666C19.3739 2.66663 20.0521 2.94758 20.5522 3.44767C21.0523 3.94777 21.3333 4.62605 21.3333 5.33329V7.99996" stroke="#E0E0E0" stroke-width="4" stroke-linecap="round" stroke-linejoin="round"/>
</svg>
