<svg width="26" height="26" viewBox="0 0 26 26" fill="#ffffff" xmlns="http://www.w3.org/2000/svg">
<linearGradient id="grad1" x1="0%" x2="100%" y1="0%" y2="0%">
      <stop offset="0%" stop-color="#B14BF4" />
      <stop offset="100%" stop-color="#5C27FE" />
    </linearGradient>
<path d="M9.91592 5.85908C11.2881 3.39748 11.9742 2.16667 13 2.16667C14.0258 2.16667 14.7119 3.39746 16.084 5.85907L16.439 6.49592C16.829 7.19543 17.0239 7.54519 17.328 7.77596C17.632 8.00673 18.0105 8.09239 18.7678 8.26372L19.4572 8.4197C22.1218 9.02261 23.4542 9.32406 23.7711 10.3434C24.0881 11.3627 23.1799 12.4249 21.3632 14.5491L20.8933 15.0986C20.3771 15.7023 20.1189 16.0041 20.0028 16.3775C19.8867 16.7509 19.9257 17.1536 20.0037 17.9591L20.0748 18.6923C20.3494 21.5265 20.4868 22.9436 19.657 23.5736C18.827 24.2035 17.5796 23.6291 15.0847 22.4805L14.4392 22.1832C13.7303 21.8568 13.3758 21.6935 13 21.6935C12.6242 21.6935 12.2697 21.8568 11.5608 22.1832L10.9153 22.4805C8.4204 23.6291 7.17294 24.2035 6.34307 23.5736C5.51321 22.9436 5.65053 21.5265 5.92518 18.6923L5.99622 17.9591C6.07427 17.1536 6.1133 16.7509 5.99717 16.3775C5.88106 16.0041 5.62296 15.7023 5.10674 15.0986L4.63677 14.5491C2.82018 12.4249 1.91188 11.3627 2.22886 10.3434C2.54585 9.32406 3.87817 9.02261 6.54283 8.4197L7.23221 8.26372C7.98941 8.09239 8.36802 8.00673 8.67201 7.77596C8.976 7.54519 9.17098 7.19544 9.56092 6.49592L9.91592 5.85908Z" fill="url(#grad1)"/>
</svg>
