<svg width="26" height="22" viewBox="0 0 26 22" fill="none" xmlns="http://www.w3.org/2000/svg">
<linearGradient id="grad1" x1="0%" x2="100%" y1="0%" y2="0%">
      <stop offset="0%" stop-color="#B14BF4" />
      <stop offset="100%" stop-color="#5C27FE" />
    </linearGradient>
<path fill-rule="evenodd" clip-rule="evenodd" d="M0.00434025 6.56924C-0.0358162 6.12358 0.20487 5.68146 0.635299 5.48581L12.1034 0.273015C12.6732 0.0140771 13.3268 0.0140771 13.8966 0.273015L25.3647 5.48581C25.7951 5.68146 26.0359 6.12358 25.9957 6.56924C26.0359 7.0149 25.7951 7.45702 25.3647 7.65267L13.8966 12.8655C13.3268 13.1244 12.6732 13.1244 12.1034 12.8655L0.635299 7.65267C0.20487 7.45702 -0.0358162 7.0149 0.00434025 6.56924ZM0.635299 11.9859C0.0906301 11.7384 -0.150211 11.0961 0.0973661 10.5514C0.344943 10.0068 0.987185 9.76597 1.53185 10.0135L13 15.2263L24.4682 10.0135C25.0129 9.76597 25.6551 10.0068 25.9026 10.5514C26.1503 11.0961 25.9093 11.7384 25.3647 11.9859L13.8966 17.1987C13.3268 17.4576 12.6732 17.4576 12.1034 17.1987L0.635299 11.9859ZM0.635299 16.3192C0.0906301 16.0716 -0.150211 15.4293 0.0973661 14.8847C0.344943 14.34 0.987185 14.0992 1.53185 14.3467L13 19.5595L24.4682 14.3467C25.0129 14.0992 25.6551 14.34 25.9026 14.8847C26.1503 15.4293 25.9093 16.0716 25.3647 16.3192L13.8966 21.5319C13.3268 21.7909 12.6732 21.7909 12.1034 21.5319L0.635299 16.3192Z" fill="url(#grad1)"/>
</svg>
