<svg width="26" height="26" viewBox="0 0 26 26" fill="none" xmlns="http://www.w3.org/2000/svg">
<linearGradient id="grad1" x1="0%" x2="100%" y1="0%" y2="0%">
      <stop offset="0%" stop-color="#B14BF4" />
      <stop offset="100%" stop-color="#5C27FE" />
    </linearGradient>
<path d="M23.8333 13C23.8333 18.983 18.983 23.8333 13 23.8333C7.0169 23.8333 2.16666 18.983 2.16666 13C2.16666 7.01691 7.0169 2.16667 13 2.16667C18.983 2.16667 23.8333 7.01691 23.8333 13Z" fill="url(#grad1)"/>
<path fill-rule="evenodd" clip-rule="evenodd" d="M13 7.85417C13.4487 7.85417 13.8125 8.21794 13.8125 8.66667V12.6634L16.2828 15.1338C16.6001 15.4512 16.6001 15.9655 16.2828 16.2828C15.9655 16.6001 15.4511 16.6001 15.1338 16.2828L12.4255 13.5745C12.2731 13.4222 12.1875 13.2155 12.1875 13V8.66667C12.1875 8.21794 12.5513 7.85417 13 7.85417Z" fill="white"/>
</svg>
