<svg width="26" height="26" viewBox="0 0 26 26" fill="none" xmlns="http://www.w3.org/2000/svg">
<g clip-path="url(#clip0_56_7)">
<path d="M22.75 6.5H17.3333V4.69084C17.3079 3.99731 17.0085 3.34215 16.5009 2.86899C15.9932 2.39582 15.3186 2.14326 14.625 2.16667H11.375C10.6814 2.14326 10.0068 2.39582 9.49912 2.86899C8.99143 3.34215 8.69207 3.99731 8.66666 4.69084V6.5H3.24999C2.96267 6.5 2.68712 6.61414 2.48396 6.8173C2.28079 7.02047 2.16666 7.29602 2.16666 7.58334C2.16666 7.87065 2.28079 8.1462 2.48396 8.34937C2.68712 8.55253 2.96267 8.66667 3.24999 8.66667H4.33332V20.5833C4.33332 21.4453 4.67573 22.2719 5.28523 22.8814C5.89472 23.4909 6.72137 23.8333 7.58332 23.8333H18.4167C19.2786 23.8333 20.1053 23.4909 20.7148 22.8814C21.3242 22.2719 21.6667 21.4453 21.6667 20.5833V8.66667H22.75C23.0373 8.66667 23.3129 8.55253 23.516 8.34937C23.7192 8.1462 23.8333 7.87065 23.8333 7.58334C23.8333 7.29602 23.7192 7.02047 23.516 6.8173C23.3129 6.61414 23.0373 6.5 22.75 6.5ZM10.8333 4.69084C10.8333 4.5175 11.0608 4.33334 11.375 4.33334H14.625C14.9392 4.33334 15.1667 4.5175 15.1667 4.69084V6.5H10.8333V4.69084Z" fill="#A0A1A4"/>
</g>
<defs>
<clipPath id="clip0_56_7">
<rect width="26" height="26" fill="white"/>
</clipPath>
</defs>
</svg>
