<svg width="127" height="100" viewBox="0 0 127 100" fill="none" xmlns="http://www.w3.org/2000/svg">
<g clip-path="url(#clip0_48_10)">
<path d="M119.018 45.7086C119.679 59.3246 108.312 67.0126 100.854 70.5687C95.7224 66.8011 100.854 58.6576 100.854 58.6576C116.327 30.1796 101.499 21.4146 100.873 21.06C119.018 28.1462 119.018 45.7086 119.018 45.7086Z" fill="#AB7AF4"/>
<path d="M100.873 21.06C101.499 21.4146 116.327 30.1796 100.854 58.6576C100.854 58.6576 95.7224 66.8012 100.854 70.5687C97.2635 72.2801 94.5821 73.0381 94.5821 73.0381H89.695C85.7853 65.5551 92.3014 62.6269 97.6805 47.9113C103.004 33.3485 97.7913 20.2564 97.6838 19.9831C98.798 20.3052 99.8537 20.6631 100.854 21.0502L100.873 21.06Z" fill="#AB4FF4"/>
<path d="M97.6838 19.9831C97.7913 20.2564 103.004 33.3485 97.6805 47.9113C92.3014 62.6269 85.7853 65.5551 89.695 73.0382H88.6524C81.9375 69.3129 88.2158 57.61 90.7213 53.4748C91.5391 52.1278 92.2135 50.6963 92.7054 49.1997C93.8946 45.5817 94.4583 41.9671 94.631 38.5542C95.1848 27.5703 91.6498 18.7045 91.6498 18.7045C93.8295 19.0168 95.8365 19.4495 97.6805 19.9798H97.6838V19.9831Z" fill="#8D00FF"/>
<path d="M91.6498 18.7045C91.6498 18.7045 95.1848 27.5703 94.631 38.5541H94.5821C89.3301 50.7841 81.8788 48.4969 77.5456 45.6728C75.4637 44.3129 73.9389 42.2566 73.1732 39.8913C59.7011 -1.71135 30.6031 14.374 30.6031 14.374H30.349C34.0372 8.86908 42.7395 -0.315589 59.5577 0.0943541C83.5046 0.68324 91.6498 18.7045 91.6498 18.7045Z" fill="#AB7AF4"/>
<path d="M94.5821 38.5509H94.631C94.4583 41.9671 93.8946 45.5817 92.7054 49.1996C92.2135 50.6963 91.539 52.1278 90.7213 53.4747C88.2158 57.61 81.9375 69.3129 88.6524 73.0381H71.7201C62.8321 69.7586 60.7078 61.5858 60.2028 58.0817C60.079 57.2098 60.0627 56.3313 60.1377 55.4529C63.5652 15.991 33.7081 14.4326 30.6031 14.3773C30.6031 14.3773 59.7011 -1.71135 73.1732 39.8913C73.9389 42.2566 75.4637 44.3129 77.5456 45.6728C81.8788 48.4969 89.3301 50.7841 94.5821 38.5509Z" fill="#AB00F4"/>
<path d="M53.2924 36.5728C46.1507 19.3909 28.1172 18.3791 28.1172 18.3791C28.1172 18.3791 28.7819 16.7068 30.3458 14.374H30.349C30.3653 14.374 30.4533 14.374 30.6031 14.374C33.7081 14.4293 63.5652 15.9878 60.1377 55.4496C60.0627 56.3281 60.079 57.2065 60.2028 58.0785C60.7078 61.5825 62.8321 69.7553 71.7201 73.0349H68.9768C58.955 70.0742 56.7493 60.7626 56.2703 56.4289C56.1139 55.0429 56.1367 54.1645 56.1367 54.1645C56.342 46.9417 55.2114 41.1732 53.2924 36.5695V36.5728Z" fill="#8D00FF"/>
<path d="M68.9768 73.0381H26.4882C21.8976 72.0263 18.1019 70.6175 14.9644 68.9745C5.36931 50.732 17.4829 51.1355 22.3016 53.4878C22.4449 53.5593 25.0155 54.7046 26.4882 55.4691C53.3087 69.3714 56.1367 56.4452 56.1367 56.4452L56.2703 56.4322C56.7493 60.7659 58.955 70.0774 68.9768 73.0381Z" fill="#AB00F4"/>
<path d="M56.2703 56.4322L56.1367 56.4452C56.1367 56.4452 53.3087 69.3714 26.4882 55.4692C25.0155 54.7046 22.4449 53.5593 22.3016 53.4878C17.4829 51.1355 5.36931 50.732 14.9644 68.9745C14.6548 68.8151 14.3518 68.6491 14.0554 68.4832C13.7849 68.3303 13.521 68.1774 13.2604 68.0245C6.95925 64.2634 3.65881 59.5165 1.93529 55.3976C1.93529 55.3976 1.93529 55.3911 1.93529 55.3813C1.83429 54.8087 -0.922047 38.5053 14.7624 35.9481C14.7624 35.9481 22.9076 34.3213 30.0753 42.4551C37.2431 50.5889 50.2754 46.3593 50.2754 46.3593C50.2754 46.3593 54.9997 44.6577 53.2957 36.5727C55.2147 41.1765 56.3452 46.945 56.14 54.1678C56.14 54.1678 56.1172 55.0462 56.2736 56.4322H56.2703Z" fill="#AB4FF4"/>
<path d="M53.2924 36.5727C54.9964 44.6577 50.2722 46.3593 50.2722 46.3593C50.2722 46.3593 37.2399 50.5889 30.0721 42.4551C22.9043 34.3213 14.7591 35.9481 14.7591 35.9481C-0.925308 38.5053 1.83103 54.8087 1.93203 55.3813C-0.228079 50.2115 0.0977292 46.034 0.0977292 46.034C2.05258 19.6805 28.1172 18.3791 28.1172 18.3791C28.1172 18.3791 46.1507 19.3909 53.2924 36.5727Z" fill="#AB7AF4"/>
<path d="M16.9863 87.4375H14.4976C14.4522 87.1155 14.3594 86.8295 14.2192 86.5795C14.0791 86.3258 13.8991 86.1098 13.6794 85.9318C13.4597 85.7538 13.206 85.6174 12.9181 85.5227C12.634 85.428 12.3253 85.3807 11.9919 85.3807C11.3897 85.3807 10.8651 85.5303 10.4181 85.8295C9.97111 86.125 9.62452 86.5568 9.37831 87.125C9.1321 87.6894 9.00899 88.375 9.00899 89.1818C9.00899 90.0114 9.1321 90.7083 9.37831 91.2727C9.62831 91.8371 9.97679 92.2633 10.4238 92.5511C10.8707 92.839 11.3878 92.983 11.9749 92.983C12.3044 92.983 12.6094 92.9394 12.8897 92.8523C13.1738 92.7652 13.4257 92.6383 13.6454 92.4716C13.8651 92.3011 14.0469 92.0947 14.1908 91.8523C14.3385 91.6098 14.4408 91.3333 14.4976 91.0227L16.9863 91.0341C16.9219 91.5682 16.7609 92.0833 16.5033 92.5795C16.2495 93.072 15.9067 93.5133 15.4749 93.9034C15.0469 94.2898 14.5355 94.5966 13.9408 94.8239C13.3499 95.0473 12.6813 95.1591 11.9351 95.1591C10.8972 95.1591 9.96922 94.9242 9.15104 94.4545C8.33664 93.9848 7.6927 93.3049 7.21922 92.4148C6.74952 91.5246 6.51467 90.447 6.51467 89.1818C6.51467 87.9129 6.75331 86.8333 7.23058 85.9432C7.70786 85.053 8.35558 84.375 9.17376 83.9091C9.99195 83.4394 10.9124 83.2045 11.9351 83.2045C12.6094 83.2045 13.2344 83.2992 13.8101 83.4886C14.3897 83.678 14.9029 83.9545 15.3499 84.3182C15.7969 84.678 16.1605 85.1193 16.4408 85.642C16.7249 86.1648 16.9067 86.7633 16.9863 87.4375ZM26.4305 95V83.3636H28.8907V92.9716H33.8793V95H26.4305ZM73.1423 83.3636H75.6026V90.9205C75.6026 91.7689 75.3999 92.5114 74.9946 93.1477C74.5931 93.7841 74.0306 94.2803 73.3071 94.6364C72.5836 94.9886 71.7408 95.1648 70.7787 95.1648C69.8128 95.1648 68.9681 94.9886 68.2446 94.6364C67.5211 94.2803 66.9586 93.7841 66.5571 93.1477C66.1556 92.5114 65.9548 91.7689 65.9548 90.9205V83.3636H68.4151V90.7102C68.4151 91.1534 68.5117 91.5473 68.7048 91.892C68.9018 92.2367 69.1783 92.5076 69.5344 92.7045C69.8905 92.9015 70.3052 93 70.7787 93C71.256 93 71.6708 92.9015 72.023 92.7045C72.3791 92.5076 72.6537 92.2367 72.8469 91.892C73.0439 91.5473 73.1423 91.1534 73.1423 90.7102V83.3636ZM89.4317 95H85.3067V83.3636H89.4658C90.6363 83.3636 91.6438 83.5966 92.4885 84.0625C93.3332 84.5246 93.9829 85.1894 94.4374 86.0568C94.8957 86.9242 95.1249 87.9621 95.1249 89.1705C95.1249 90.3826 94.8957 91.4242 94.4374 92.2955C93.9829 93.1667 93.3294 93.8352 92.4772 94.3011C91.6287 94.767 90.6135 95 89.4317 95ZM87.7669 92.892H89.3294C90.0567 92.892 90.6685 92.7633 91.1647 92.5057C91.6647 92.2443 92.0397 91.8409 92.2897 91.2955C92.5435 90.7462 92.6704 90.0379 92.6704 89.1705C92.6704 88.3106 92.5435 87.608 92.2897 87.0625C92.0397 86.517 91.6666 86.1155 91.1704 85.858C90.6741 85.6004 90.0624 85.4716 89.3351 85.4716H87.7669V92.892ZM103.242 83.3636H105.998L108.651 88.375H108.765L111.419 83.3636H114.174L109.93 90.8864V95H107.487V90.8864L103.242 83.3636Z" fill="white"/>
<path d="M50.1299 80.2083C46.2268 84.6005 43.7213 87.3498 43.7213 90.0209C43.7213 92.692 46.5884 94.8589 50.1299 94.8589C53.6715 94.8589 56.5386 92.6953 56.5386 90.0209C56.5386 87.3465 54.0299 84.6038 50.1299 80.2083ZM50.1071 83.3317C50.4818 83.7742 50.9314 84.5452 50.9314 85.3586C50.9314 87.7434 47.7255 88.1339 47.7255 86.6828C47.7255 85.6872 49.3187 84.2134 50.1071 83.3317Z" fill="#AB00F4"/>
</g>
<defs>
<clipPath id="clip0_48_10">
<rect width="127" height="100" fill="white"/>
</clipPath>
</defs>
</svg>
