<svg width="50" height="50" viewBox="0 0 50 50" fill="none" xmlns="http://www.w3.org/2000/svg">
<rect width="50" height="50" rx="9" fill="#F5F5F5"/>
<path d="M25.75 20.0487C25.2026 19.8553 24.6136 19.75 24 19.75C21.1004 19.75 18.75 22.1004 18.75 25C18.75 27.8996 21.1004 30.25 24 30.25C26.8996 30.25 29.25 27.8996 29.25 25V8.30115C36.3499 10.5311 41.5 17.1641 41.5 25C41.5 34.6649 33.6649 42.5 24 42.5C14.335 42.5 6.5 34.6649 6.5 25C6.5 15.335 14.335 7.5 24 7.5C24.5906 7.5 25.1744 7.52926 25.75 7.58642V20.0487Z" fill="#15D5FF"/>
</svg>
