<svg width="50" height="50" viewBox="0 0 50 50" fill="none" xmlns="http://www.w3.org/2000/svg">
<rect width="50" height="50" rx="9" fill="#F5F5F5"/>
<path d="M34.7403 36.4583C33.4147 32.3603 30.851 29.8209 27.4533 26.888C30.6656 24.3241 34.7371 22.7916 39.1666 22.7916V9.12492H40.889C41.8248 9.12492 42.5833 9.88504 42.5833 10.822V38.1779C42.5833 39.1151 41.8055 39.8749 40.889 39.8749H10.111C9.17521 39.8749 8.41663 39.1149 8.41663 38.1779V10.822C8.41663 9.88472 9.19445 9.12492 10.111 9.12492H15.25V5.70825H18.6666V12.5416H11.8333V24.4999C20.751 24.4999 28.3389 28.7052 31.1592 36.4583H34.7403ZM35.75 5.70825V12.5416H22.0833V9.12492H32.3333V5.70825H35.75ZM33.1875 21.0833C31.7723 21.0833 30.625 19.936 30.625 18.5208C30.625 17.1055 31.7723 15.9583 33.1875 15.9583C34.6026 15.9583 35.75 17.1055 35.75 18.5208C35.75 19.936 34.6026 21.0833 33.1875 21.0833Z" fill="#15D5FF"/>
</svg>
