<svg width="50" height="50" viewBox="0 0 50 50" fill="none" xmlns="http://www.w3.org/2000/svg">
<rect width="50" height="50" rx="9" fill="#F5F5F5"/>
<path d="M34.5017 39H38V42.5H24C14.335 42.5 6.5 34.6649 6.5 25C6.5 15.335 14.335 7.5 24 7.5C33.6649 7.5 41.5 15.335 41.5 25C41.5 30.7246 38.7513 35.8071 34.5017 39ZM24 21.5C25.9331 21.5 27.5 19.933 27.5 18C27.5 16.067 25.9331 14.5 24 14.5C22.0669 14.5 20.5 16.067 20.5 18C20.5 19.933 22.0669 21.5 24 21.5ZM17 28.5C18.933 28.5 20.5 26.9331 20.5 25C20.5 23.0669 18.933 21.5 17 21.5C15.067 21.5 13.5 23.0669 13.5 25C13.5 26.9331 15.067 28.5 17 28.5ZM31 28.5C32.9331 28.5 34.5 26.9331 34.5 25C34.5 23.0669 32.9331 21.5 31 21.5C29.0669 21.5 27.5 23.0669 27.5 25C27.5 26.9331 29.0669 28.5 31 28.5ZM24 35.5C25.9331 35.5 27.5 33.9331 27.5 32C27.5 30.0669 25.9331 28.5 24 28.5C22.0669 28.5 20.5 30.0669 20.5 32C20.5 33.9331 22.0669 35.5 24 35.5Z" fill="#15D5FF"/>
</svg>
