<svg width="32" height="32" viewBox="0 0 32 32" fill="none" xmlns="http://www.w3.org/2000/svg">
<path d="M13.6667 4C8.3437 4 4 8.34371 4 13.6667C4 18.9896 8.3437 23.3333 13.6667 23.3333C15.8488 23.3333 17.8593 22.5953 19.4805 21.3672L25.724 27.6094C25.8468 27.7373 25.994 27.8395 26.1568 27.9099C26.3197 27.9803 26.4949 28.0175 26.6723 28.0193C26.8497 28.0211 27.0256 27.9875 27.1899 27.9204C27.3541 27.8533 27.5033 27.7542 27.6288 27.6288C27.7542 27.5033 27.8533 27.3541 27.9204 27.1899C27.9875 27.0256 28.0211 26.8497 28.0193 26.6723C28.0175 26.4949 27.9803 26.3197 27.9099 26.1568C27.8395 25.994 27.7373 25.8468 27.6094 25.724L21.3672 19.4805C22.5953 17.8593 23.3333 15.8488 23.3333 13.6667C23.3333 8.34371 18.9896 4 13.6667 4ZM13.6667 6.66667C17.5485 6.66667 20.6667 9.78488 20.6667 13.6667C20.6667 15.5305 19.9427 17.2137 18.7656 18.4648C18.651 18.5478 18.5504 18.6484 18.4674 18.763C17.2161 19.9416 15.5318 20.6667 13.6667 20.6667C9.78488 20.6667 6.66667 17.5485 6.66667 13.6667C6.66667 9.78488 9.78488 6.66667 13.6667 6.66667Z" fill="currentColor"/>
</svg>
