<svg width="22" height="22" viewBox="0 0 28 22" fill="none" xmlns="http://www.w3.org/2000/svg">
<path d="M23.3333 0.333374H4.66663C3.60576 0.333374 2.58834 0.754802 1.8382 1.50495C1.08805 2.25509 0.666626 3.27251 0.666626 4.33337V17.6667C0.666626 18.7276 1.08805 19.745 1.8382 20.4951C2.58834 21.2453 3.60576 21.6667 4.66663 21.6667H23.3333C24.3942 21.6667 25.4116 21.2453 26.1617 20.4951C26.9119 19.745 27.3333 18.7276 27.3333 17.6667V4.33337C27.3333 3.27251 26.9119 2.25509 26.1617 1.50495C25.4116 0.754802 24.3942 0.333374 23.3333 0.333374ZM22.44 3.00004L14 9.33337L5.55996 3.00004H22.44ZM23.3333 19H4.66663C4.313 19 3.97387 18.8596 3.72382 18.6095C3.47377 18.3595 3.33329 18.0203 3.33329 17.6667V4.66671L13.2 12.0667C13.4308 12.2398 13.7115 12.3334 14 12.3334C14.2885 12.3334 14.5692 12.2398 14.8 12.0667L24.6666 4.66671V17.6667C24.6666 18.0203 24.5261 18.3595 24.2761 18.6095C24.0261 18.8596 23.6869 19 23.3333 19Z" fill="white"/>
</svg>
