<svg width="32" height="32" viewBox="0 0 32 32" fill="none" xmlns="http://www.w3.org/2000/svg">
<path d="M23.2 12.8H11.2V9.59995C11.2025 8.75204 11.5405 7.93957 12.1401 7.34001C12.7396 6.74044 13.5521 6.40248 14.4 6.39995H18C18.7398 6.40908 19.4467 6.70701 19.9698 7.23015C20.4929 7.75328 20.7909 8.46018 20.8 9.19995C20.8 9.6243 20.9686 10.0313 21.2686 10.3313C21.5687 10.6314 21.9757 10.8 22.4 10.8C22.8243 10.8 23.2313 10.6314 23.5314 10.3313C23.8314 10.0313 24 9.6243 24 9.19995C23.9887 7.61215 23.3529 6.09259 22.2301 4.96981C21.1074 3.84703 19.5878 3.21126 18 3.19995H14.4C12.7042 3.20502 11.0792 3.88093 9.88011 5.08006C8.68097 6.2792 8.00506 7.90412 8 9.59995V12.88C6.88481 13.071 5.87258 13.6489 5.14108 14.5121C4.40958 15.3752 4.00557 16.4685 4 17.6V24C4.0038 25.2718 4.51073 26.4905 5.41008 27.3899C6.30944 28.2892 7.52813 28.7962 8.8 28.7999H23.2C24.4719 28.7962 25.6906 28.2892 26.5899 27.3899C27.4893 26.4905 27.9962 25.2718 28 24V17.6C27.9962 16.3281 27.4893 15.1094 26.5899 14.21C25.6906 13.3107 24.4719 12.8037 23.2 12.8ZM24.8 24C24.8 24.4243 24.6314 24.8313 24.3314 25.1313C24.0313 25.4314 23.6243 25.6 23.2 25.6H8.8C8.37565 25.6 7.96869 25.4314 7.66863 25.1313C7.36857 24.8313 7.2 24.4243 7.2 24V17.6C7.2 17.1756 7.36857 16.7686 7.66863 16.4686C7.96869 16.1685 8.37565 16 8.8 16H23.2C23.6243 16 24.0313 16.1685 24.3314 16.4686C24.6314 16.7686 24.8 17.1756 24.8 17.6V24Z" fill="white"/>
</svg>
